<?xml version="1.0" encoding="UTF-8"?>
<svg width="497px" height="498px" viewBox="0 0 497 498" version="1.1" xmlns="http://www.w3.org/2000/svg" xmlns:xlink="http://www.w3.org/1999/xlink">
    <!-- Generator: Sketch 42 (36781) - http://www.bohemiancoding.com/sketch -->
    <title>Group</title>
    <desc>Created with Sketch.</desc>
    <defs></defs>
    <g id="Page-1" stroke="none" stroke-width="1" fill="none" fill-rule="evenodd">
        <g id="instagram_f_icon-icons.com_65485" fill-rule="nonzero" fill="#FFFFFF">
            <g id="Group">
                <path d="M496,249 C496,283.8 495.3,318.7 496.2,353.5 C497.7,415.1 459,462.7 409.7,483.9 C389.9,492.4 369.1,496.9 347.6,496.9 C280.3,497 212.9,497.9 145.6,496.6 C94.9,495.6 53.2,474.4 23.3,432.6 C7.6,410.6 0.1,385.6 0.1,358.5 L0.1,143.5 C0.1,85 28.6,44.1 79.2,17.5 C101.2,6 125.1,1.1 150,1 C215.3,1 280.7,0.6 346,1.2 C396.7,1.6 439,21 470.2,61.8 C487.6,84.6 496,110.8 496,139.6 L496,249 Z M37,249 L37,359 C37,375.4 40.8,390.8 49.3,404.7 C71.6,441.2 105.3,459 147.1,459.7 C214.2,460.7 281.4,460.1 348.6,459.9 C365.1,459.9 381.1,456.5 396,449.4 C436.6,430 459.3,399.1 459.1,352.7 C458.7,281.7 459,210.7 459,139.7 C459,119.6 453.3,101.2 441.4,85 C418.4,53.9 386.6,38.6 348.6,38.2 C281.6,37.4 214.6,37.9 147.6,38 C133.3,38 119.5,40.9 106.1,45.9 C69.3,59.6 35.1,94.3 36.7,145.4 C37.9,180 37,214.5 37,249 Z" id="Shape"></path>
                <path d="M248.6,355 C184.1,355 132.1,303.6 132,239.6 C131.9,176.6 184.3,125 248.4,125 C312.7,124.9 364.9,176.4 365,239.9 C365,303.3 312.9,354.9 248.6,355 Z M248.6,318 C292.5,318 328.1,282.9 328,239.7 C327.9,196.9 292.3,161.9 248.6,161.9 C204.7,161.9 168.9,196.8 168.9,239.9 C169,283.1 204.7,318.1 248.6,318 Z" id="Shape"></path>
                <path d="M378.5,90 C392,90 403,101.5 403,115.6 C402.9,129.7 391.8,141.1 378.3,141 C365,140.9 354.1,129.5 354.1,115.7 C354,101.6 365,90 378.5,90 Z" id="Shape"></path>
            </g>
        </g>
    </g>
</svg>