<?xml version="1.0" encoding="UTF-8"?>
<svg width="146px" height="128px" viewBox="0 0 146 128" version="1.1" xmlns="http://www.w3.org/2000/svg" xmlns:xlink="http://www.w3.org/1999/xlink">
    <!-- Generator: Sketch 42 (36781) - http://www.bohemiancoding.com/sketch -->
    <title>Group</title>
    <desc>Created with Sketch.</desc>
    <defs></defs>
    <g id="Page-1" stroke="none" stroke-width="1" fill="none" fill-rule="evenodd">
        <g id="1497554808-social-media06_84876" fill-rule="nonzero">
            <g id="Group">
                <path d="M145.1,7 L119.5,123.3 C118.6,127.2 114,128.8 110.9,126.3 L80.9,102.5 C78.7,100.7 75.4,101 73.5,103.2 L58.1,121 C55.4,124.2 50.2,123.1 49,119.2 L35.4,77.3 C34.8,75.6 33.4,74.2 31.7,73.8 L4.8,66.7 C-0.1,65.4 -0.6,58.6 4.1,56.6 L137.8,0.9 C141.8,-0.7 146,2.8 145.1,7 Z" id="Shape" fill="#000000"></path>
                <path d="M112.5,29 L42.7,71 C41.5,71.7 41,73.1 41.4,74.4 L50.5,107 C50.8,107.9 52.1,107.8 52.2,106.8 L54.2,84.3 C54.3,82.6 55.1,81 56.4,79.9 L113.4,30.2 C114,29.6 113.2,28.5 112.5,29 Z" id="Shape" fill="#FFFFFF"></path>
            </g>
        </g>
    </g>
</svg>