<?xml version="1.0" encoding="utf-8"?>
<!-- Generator: Adobe Illustrator 19.0.0, SVG Export Plug-In . SVG Version: 6.00 Build 0)  -->
<svg version="1.1" id="Layer_1" xmlns="http://www.w3.org/2000/svg" xmlns:xlink="http://www.w3.org/1999/xlink" x="0px" y="0px"
	 viewBox="0 0 96 96" style="enable-background:new 0 0 96 96;" xml:space="preserve">
<style type="text/css">
	.st0{fill:#333333;}
</style>
<g id="XMLID_1_">
	<path id="XMLID_3_" class="st0" d="M71.6,37.1l-6.9-1.6l-2.6-6.6l8.2-9.6c-4.2-0.7-8.6,0.7-11.5,4.1c-3.3,3.8-3.8,9.1-1.8,13.3
		l-0.1,0.1l-7.8,9l6.8,7.4l8.5-9.9l0.1-0.1c4.5,1.4,9.6,0.1,12.9-3.8c3-3.4,3.7-8,2.3-12L71.6,37.1z"/>
	<path id="XMLID_4_" class="st0" d="M29.5,68.7c-1.7,2-1.5,4.9,0.5,6.6l0.5,0.4c2,1.7,4.9,1.5,6.6-0.5l10.7-12.4l-6.8-7.4L29.5,68.7
		z"/>
	<path id="XMLID_5_" class="st0" d="M55.2,54.2l-6.8-7.4l-9-9.8l-0.1-0.1c0.1-0.2,0.2-0.4,0.2-0.6c0.1-0.2,0.2-0.4,0.2-0.6
		c1.3-4.1,0.4-8.7-2.7-12c-3.1-3.3-7.5-4.6-11.7-3.7l8.5,9.3l-2.3,6.7l-6.9,1.8L16,28.4c-1.2,4-0.3,8.6,2.7,11.9
		c3.1,3.4,7.6,4.6,11.7,3.7c0.2,0,0.4-0.1,0.7-0.2c0.2-0.1,0.4-0.1,0.6-0.2l0.1,0.1l9.8,10.7l6.8,7.4l11.8,12.8
		c0.9,1,2.2,1.5,3.5,1.5c1.1,0,2.3-0.4,3.2-1.2l0.5-0.4c1.9-1.8,2-4.7,0.3-6.6L55.2,54.2z"/>
</g>
</svg>
