<?xml version="1.0" encoding="UTF-8"?>
<svg width="402px" height="512px" viewBox="0 0 402 512" version="1.1" xmlns="http://www.w3.org/2000/svg" xmlns:xlink="http://www.w3.org/1999/xlink">
    <!-- Generator: Sketch 42 (36781) - http://www.bohemiancoding.com/sketch -->
    <title>icon</title>
    <desc>Created with Sketch.</desc>
    <defs></defs>
    <g id="Page-1" stroke="none" stroke-width="1" fill="none" fill-rule="evenodd">
        <g id="icon" transform="translate(-55.000000, 0.000000)">
            <rect id="Rectangle" fill-opacity="0" fill="#D8D8D8" x="0" y="0" width="512" height="512"></rect>
            <g id="Group" transform="translate(55.000000, 0.000000)">
                <g id="quality_black">
                    <path d="M171.932,399.948 C151.972,418.393 124.365,422.524 99.879,410.734 C91.027,406.471 83.557,400.585 77.709,393.535 L44.368,467.279 C42.851,470.634 44.545,473.163 45.343,474.094 C46.141,475.024 48.382,477.083 51.928,476.097 L76.2,469.341 C78.966,468.572 81.762,468.201 84.519,468.201 C96.15,468.201 107.097,474.784 112.368,485.693 L123.33,508.378 C124.931,511.693 127.934,512.024 129.184,511.999 C130.41,511.983 133.426,511.585 134.942,508.23 L187.975,390.926 C182.148,392.603 176.63,395.606 171.932,399.948 Z" id="Shape" fill="#FFFFFF" fill-rule="nonzero"></path>
                    <path d="M357.631,467.279 L324.29,393.535 C318.442,400.586 310.972,406.472 302.12,410.734 C277.633,422.524 250.027,418.393 230.067,399.948 C225.369,395.606 219.851,392.603 214.022,390.926 L267.055,508.23 C268.572,511.586 271.588,511.983 272.813,511.999 C274.063,512.024 277.066,511.693 278.667,508.378 L289.629,485.693 C294.899,474.784 305.847,468.201 317.478,468.201 C320.235,468.201 323.032,468.572 325.797,469.341 L350.069,476.097 C353.615,477.084 355.857,475.025 356.654,474.094 C357.454,473.162 359.148,470.633 357.631,467.279 Z" id="Shape" fill="#FFFFFF" fill-rule="nonzero"></path>
                    <path d="M383.821,207.791 C356.131,188.831 347.539,151.186 364.261,122.089 C374.312,104.598 369.081,87.314 360.834,76.971 C352.586,66.631 336.898,57.686 317.611,63.591 C285.527,73.418 250.734,56.666 238.41,25.45 C231.002,6.686 214.227,0 201,0 C187.773,0 170.998,6.686 163.59,25.451 C151.266,56.668 116.476,73.418 84.389,63.592 C65.1,57.688 49.415,66.631 41.166,76.972 C32.919,87.315 27.688,104.597 37.739,122.09 C54.461,151.186 45.869,188.832 18.179,207.792 C1.533,219.191 -1.252,237.032 1.69,249.928 C4.632,262.824 14.884,277.689 34.827,280.736 C68.001,285.804 92.075,315.992 89.636,349.463 C88.168,369.584 100.381,382.886 112.298,388.626 C124.216,394.365 142.23,395.621 157.046,381.928 C169.368,370.541 185.187,364.845 200.999,364.845 C216.817,364.845 232.627,370.538 244.951,381.928 C259.769,395.622 277.784,394.366 289.701,388.626 C301.618,382.887 313.83,369.585 312.363,349.464 C309.924,315.993 333.998,285.805 367.172,280.736 C387.115,277.689 397.365,262.823 400.309,249.928 C403.252,237.03 400.465,219.189 383.821,207.791 Z" id="Shape" fill="#FFFFFF" fill-rule="nonzero"></path>
                    <path d="M201,335.923 C128.425,335.923 69.381,276.879 69.381,204.304 C69.381,131.729 128.424,72.684 201,72.684 C273.576,72.684 332.619,131.728 332.619,204.303 C332.618,276.878 273.575,335.923 201,335.923 Z" id="Path" fill="#000000"></path>
                    <path d="M200.999,97.225 C141.955,97.225 93.92,145.261 93.92,204.304 C93.92,263.347 141.954,311.383 200.999,311.383 C260.044,311.383 308.078,263.347 308.078,204.304 C308.078,145.261 260.043,97.225 200.999,97.225 Z" id="Shape" fill="#FFFFFF" fill-rule="nonzero"></path>
                    <path d="M255.874,193.922 L189.232,242.597 C187.117,244.142 184.579,244.959 181.995,244.959 C181.329,244.959 180.66,244.905 179.994,244.795 C176.745,244.258 173.847,242.437 171.953,239.741 L152.019,211.359 C148.124,205.812 149.463,198.159 155.008,194.264 C160.554,190.369 168.206,191.707 172.102,197.253 L184.852,215.407 L241.4,174.105 C246.873,170.11 254.55,171.302 258.546,176.776 C262.543,182.248 261.346,189.924 255.874,193.922 Z" id="Path" fill="#000000"></path>
                </g>
            </g>
        </g>
    </g>
</svg>