<?xml version="1.0" standalone="no"?>
<!DOCTYPE svg PUBLIC "-//W3C//DTD SVG 20010904//EN"
 "http://www.w3.org/TR/2001/REC-SVG-20010904/DTD/svg10.dtd">
<svg version="1.0" xmlns="http://www.w3.org/2000/svg"
 width="400.000000pt" height="400.000000pt" viewBox="0 0 400.000000 400.000000"
 preserveAspectRatio="xMidYMid meet">
<metadata>
Created by potrace 1.11, written by Peter Selinger 2001-2013
</metadata>
<g transform="translate(0.000000,400.000000) scale(0.100000,-0.100000)"
fill="#000000" stroke="none">
<path d="M873 2894 c-186 -31 -329 -121 -427 -268 -88 -133 -107 -235 -110
-598 -3 -305 13 -457 56 -557 105 -238 318 -371 598 -373 184 -1 318 48 444
164 135 123 182 249 191 513 5 147 -3 190 -45 238 -44 51 -80 57 -310 54 -235
-2 -254 -7 -289 -79 -38 -79 -10 -176 60 -207 35 -16 65 -20 208 -24 51 -2 52
-5 40 -95 -21 -149 -109 -232 -273 -256 -34 -5 -127 14 -165 34 -71 35 -129
117 -144 200 -21 109 -28 496 -13 644 20 194 128 307 291 307 113 0 202 -59
257 -171 57 -118 107 -159 192 -160 59 0 115 29 142 73 13 24 18 52 19 107 0
67 -4 84 -38 152 -80 164 -239 277 -427 303 -89 12 -181 12 -257 -1z"/>
<path d="M2102 2893 c-35 -7 -90 -68 -103 -115 -14 -49 -20 -1461 -7 -1536 15
-88 84 -143 174 -138 60 4 92 16 123 50 44 47 48 92 47 548 -1 234 2 424 5
422 3 -2 68 -126 144 -276 75 -150 149 -292 163 -315 65 -104 209 -112 279
-16 15 22 93 168 173 325 l145 286 5 -451 c3 -305 9 -460 16 -477 42 -93 168
-126 260 -69 36 22 59 57 69 105 12 59 7 1487 -5 1535 -27 107 -134 156 -236
110 -72 -33 -69 -27 -306 -481 -128 -243 -251 -475 -253 -478 -2 -2 -38 64
-80 145 -43 81 -90 171 -105 198 -15 28 -69 131 -120 230 -165 319 -186 352
-244 382 -30 16 -106 24 -144 16z"/>
</g>
</svg>
